<svg width="24" height="24" viewBox="0 0 24 24" fill="none" xmlns="http://www.w3.org/2000/svg">
<g clip-path="url(#clip0_2097_436)">
<path fill-rule="evenodd" clip-rule="evenodd" d="M13.972 8.60261C14.7074 8.2359 15.6432 7.69609 16.5801 6.9565C16.7776 7.36672 16.7992 7.7247 16.6975 8.01376C16.6253 8.21747 16.4894 8.39465 16.3107 8.53562C16.1172 8.68796 15.8755 8.79887 15.6083 8.85882C15.1014 8.97301 14.5095 8.90634 13.972 8.60261ZM14.0995 12.36L15.073 12.9223C13.0852 14.0364 12.5449 16.1051 11.903 18.12C11.2611 16.1051 10.7207 14.0364 8.73303 12.9223L9.70654 12.36C9.80072 12.3244 9.88121 12.2599 9.93649 12.1757C9.99177 12.0916 10.019 11.9921 10.0143 11.8916C9.92508 10.0045 10.4346 9.17007 11.1219 8.64613C11.3684 8.45844 11.6375 8.3642 11.903 8.3642C12.1685 8.3642 12.4376 8.45844 12.6842 8.64613C13.3714 9.17007 13.8809 10.0045 13.7917 11.8916C13.787 11.9921 13.8142 12.0916 13.8695 12.1757C13.9248 12.2599 14.0053 12.3244 14.0995 12.36ZM11.903 0.0385742C13.0283 0.0687863 14.1564 0.287243 15.1354 0.712215C15.8134 1.00688 16.446 1.39611 17.0188 1.86156C17.2775 2.07168 17.4905 2.27467 17.7252 2.50835C18.358 2.53023 19.2829 1.82718 19.7123 1.16932C18.9733 3.5919 15.6013 6.45275 13.2668 7.54743C13.2658 7.54703 13.2652 7.54647 13.2644 7.54599C12.8455 7.22608 12.3743 7.06613 11.903 7.06613C11.4317 7.06613 10.9605 7.22608 10.5416 7.54599C10.5409 7.54639 10.5402 7.54711 10.5393 7.54743C8.20467 6.45275 4.8327 3.5919 4.09375 1.16932C4.52305 1.82718 5.44792 2.53023 6.08077 2.50835C6.3155 2.27475 6.52851 2.07168 6.78711 1.86156C7.35994 1.39611 7.99255 1.00688 8.67052 0.712215C9.64965 0.287243 10.7777 0.0687863 11.903 0.0385742ZM9.83396 8.60261C9.09862 8.2359 8.16276 7.69609 7.22595 6.9565C7.02841 7.36672 7.00677 7.7247 7.10847 8.01376C7.18067 8.21747 7.31658 8.39465 7.49521 8.53562C7.68883 8.68796 7.93052 8.79887 8.1977 8.85882C8.70466 8.97301 9.29648 8.90634 9.83396 8.60261Z" fill="#2E2C2F"/>
<path fill-rule="evenodd" clip-rule="evenodd" d="M17.6053 6.05015C18.121 5.52965 18.5755 4.95354 18.9409 4.43945L19.1265 4.78878C19.724 5.9842 20.0345 7.17481 20.0345 8.51472L20.0332 10.6409L20.0444 11.7432C20.0877 14.4491 20.6732 17.1869 21.9995 19.6923L19.2245 17.4547L17.2611 20.6409L15.1983 18.6991L11.9021 24.0482L8.60585 18.6991L6.54317 20.641L4.57971 17.4548L1.80469 19.6924C3.13097 17.1869 3.71646 14.4492 3.75982 11.7432L3.77104 10.641L3.76975 8.5148C3.76975 7.17481 4.08013 5.9842 4.6778 4.78886L4.86332 4.43953C5.22875 4.95362 5.68313 5.52965 6.19898 6.05023L6.0379 6.38481C5.72496 7.03465 5.62134 7.76126 5.86512 8.45229C6.02228 8.89738 6.30909 9.27907 6.67885 9.57046C7.03787 9.85342 7.46276 10.0442 7.9076 10.1443C8.19738 10.2096 8.49261 10.2364 8.78592 10.2273C8.71748 10.6152 8.68759 11.0176 8.68567 11.4276L6.06803 12.9395L8.088 14.0717C8.24944 14.1623 8.40314 14.266 8.54751 14.3818C10.2129 15.877 11.2141 20.3004 11.9022 22.461C12.5903 20.3004 13.5915 15.877 15.2569 14.3818C15.4013 14.2659 15.555 14.1622 15.7164 14.0717L17.7364 12.9395L15.1187 11.4276C15.1167 11.0176 15.0869 10.6152 15.0184 10.2273C15.3117 10.2364 15.607 10.2096 15.8967 10.1443C16.3416 10.0442 16.7666 9.85342 17.1255 9.57046C17.4952 9.27907 17.7821 8.89738 17.9391 8.45229C18.183 7.76126 18.0793 7.03473 17.7664 6.38481L17.6054 6.05023L17.6053 6.05015Z" fill="#2E2C2F"/>
</g>
<defs>
<clipPath id="clip0_2097_436">
<rect width="24" height="24" fill="white"/>
</clipPath>
</defs>
</svg>
