<svg width="24" height="24" viewBox="0 0 24 24" fill="none" xmlns="http://www.w3.org/2000/svg">
<path d="M21.9539 2.19422C21.9539 2.19422 24.1741 1.24194 23.989 3.55463C23.9274 4.50693 23.3724 7.83993 22.9406 11.445L21.4605 22.1243C21.4605 22.1243 21.3372 23.6887 20.2271 23.9608C19.117 24.2329 17.4519 23.0085 17.1435 22.7364C16.8968 22.5324 12.5182 19.4714 10.9763 17.975C10.5446 17.5669 10.0513 16.7506 11.038 15.7983L17.5136 8.99631C18.2536 8.18005 18.9937 6.27548 15.9101 8.58818L7.27606 15.0501C7.27606 15.0501 6.28932 15.7303 4.4392 15.1182L0.430527 13.7577C0.430527 13.7577 -1.04959 12.7374 1.47894 11.7171C7.64612 8.5201 15.2317 5.25512 21.9539 2.19422Z" fill="#2E2C2F"/>
</svg>
