<svg width="386" height="143" viewBox="0 0 386 143" fill="none" xmlns="http://www.w3.org/2000/svg">
<path d="M24.237 43.5249C23.0763 42.0493 22.1565 40.4658 21.4774 38.7743C20.7984 37.0828 20.3278 35.363 20.0657 33.6149C19.8335 31.8705 19.7907 30.1942 19.9372 28.5862C20.1137 26.9817 20.4604 25.5419 20.9774 24.2667C21.2074 24.2486 21.6137 24.282 22.196 24.3667C22.7916 24.4683 23.4453 24.5919 24.1571 24.7377C24.8856 24.8704 25.5741 25.021 26.2224 25.1896C26.8839 25.375 27.3956 25.5424 27.7576 25.692C27.5471 26.5632 27.3356 27.571 27.1229 28.7154C26.9102 29.8598 26.7952 31.0766 26.7779 32.3659C26.7774 33.642 26.9584 34.9246 27.3209 36.2137C27.6834 37.5027 28.3197 38.7258 29.2298 39.8827C30.3376 41.2912 31.4962 42.2121 32.7054 42.6452C33.9278 43.0951 35.0931 43.1963 36.2013 42.9489C37.3227 42.7183 38.2942 42.2798 39.1158 41.6335C39.8368 41.0664 40.3391 40.3592 40.6226 39.5119C40.9229 38.6515 41.0309 37.6845 40.9464 36.6109C40.892 35.541 40.6967 34.3782 40.3605 33.1227C40.0244 31.8671 39.5971 30.5476 39.0788 29.1639C38.21 26.6445 37.5647 24.2886 37.143 22.0961C36.7345 19.9204 36.7694 17.9116 37.2477 16.0697C37.7392 14.2446 38.8904 12.6199 40.7013 11.1955C42.5626 9.73148 44.5159 9.02293 46.5612 9.06979C48.6198 9.13342 50.6187 9.75963 52.558 10.9484C54.5105 12.154 56.2649 13.7461 57.8212 15.7247C59.1401 17.4015 60.175 19.1659 60.9261 21.0179C61.7071 22.8735 62.2071 24.6652 62.426 26.3929C62.675 28.1241 62.6524 29.6483 62.3583 30.9652C61.9414 31.0218 61.3231 31.0467 60.5035 31.0399C59.7007 31.0199 58.8782 30.9748 58.0358 30.9046C57.2066 30.8511 56.5326 30.7706 56.0137 30.663C56.145 29.6912 56.166 28.5619 56.0766 27.2751C56.0173 25.9918 55.7535 24.6386 55.2855 23.2154C54.8307 21.8089 54.0823 20.4434 53.0403 19.1187C51.8797 17.6431 50.593 16.7146 49.1801 16.3331C47.7804 15.9684 46.4769 16.2608 45.2696 17.2104C44.666 17.6852 44.2481 18.2582 44.016 18.9293C43.8007 19.5872 43.7166 20.2912 43.7637 21.0413C43.824 21.8081 43.9724 22.6006 44.2089 23.4189C44.4453 24.2371 44.7285 25.0457 45.0584 25.8448C45.8408 27.9436 46.5536 29.9886 47.1968 31.9796C47.8401 33.9707 48.2425 35.8798 48.404 37.707C48.5655 39.5342 48.3531 41.2483 47.7669 42.8494C47.1806 44.4505 46.049 45.9105 44.3722 47.2294C42.9302 48.3636 41.3394 49.1535 39.5999 49.5989C37.8903 50.0479 36.1254 50.1333 34.3051 49.8551C32.5017 49.5637 30.728 48.896 28.9841 47.8521C27.2701 46.8118 25.6877 45.3693 24.237 43.5249Z" fill="white"/>
<path d="M32.6174 74.4452C34.9953 72.1253 37.4644 69.6311 40.0248 66.9627C42.6016 64.308 45.1457 61.6259 47.6572 58.9162C50.1988 56.204 52.5907 53.6027 54.8331 51.1125C57.0893 48.6061 59.1008 46.3397 60.8676 44.3135C62.6508 42.3011 64.0791 40.6592 65.1527 39.3878C66.1114 39.8065 67.1455 40.4005 68.255 41.1698C69.3782 41.9229 70.4125 42.6985 71.3579 43.4968C70.9888 43.967 70.5027 44.5756 69.8996 45.3229C69.2966 46.0701 68.7473 46.7371 68.2518 47.3239C68.9845 47.2167 69.998 47.2069 71.2921 47.2945C72.6026 47.3959 74.0304 47.7221 75.5756 48.273C77.1509 48.8214 78.6801 49.7218 80.1634 50.9743C83.3906 53.6995 84.9534 56.7922 84.8517 60.2524C84.7662 63.7263 83.1751 67.2969 80.0783 70.9643C77.8898 73.5559 75.5341 75.4199 73.0109 76.5561C70.5179 77.6899 67.9996 78.0764 65.4562 77.7156C62.9266 77.3386 60.5289 76.1935 58.2633 74.2803C57.2364 73.4132 56.2777 72.3663 55.387 71.1395C54.5264 69.9102 53.8199 68.7133 53.2675 67.5488C52.7452 66.3818 52.4793 65.4732 52.4699 64.823C52.137 65.1841 51.5539 65.8086 50.7204 66.6964C49.887 67.5841 48.9216 68.6117 47.8241 69.7791C46.7266 70.9465 45.5991 72.1165 44.4415 73.2889C43.2864 74.4915 42.2127 75.5812 41.2202 76.5581C40.2441 77.5487 39.4606 78.3112 38.8699 78.8454C38.1078 78.4253 37.3162 77.9244 36.4951 77.3427C35.6765 76.791 34.9193 76.2494 34.2235 75.7176C33.544 75.1997 33.0086 74.7756 32.6174 74.4452ZM62.2837 67.8328C63.7507 69.0716 65.1883 69.7829 66.5965 69.9669C68.0186 70.1346 69.4094 69.8432 70.7692 69.0927C72.1589 68.3397 73.5076 67.1889 74.8152 65.6405C76.5219 63.6193 77.3623 61.6486 77.3366 59.7281C77.3109 57.8077 76.3445 56.0423 74.4374 54.432C73.2639 53.441 72.0161 52.7363 70.694 52.318C69.372 51.8997 68.1497 51.6773 67.0272 51.6508C65.9185 51.6081 65.0673 51.6572 64.4737 51.7981C64.2371 52.0451 63.8217 52.5041 63.2273 53.1749C62.6467 53.8294 61.9891 54.5585 61.2546 55.3623C60.52 56.166 59.8212 56.944 59.158 57.6963C58.5085 58.4323 57.9967 59.0054 57.6226 59.4154C57.7146 59.9677 57.8832 60.7105 58.1284 61.6435C58.4037 62.574 58.8601 63.5876 59.4976 64.6844C60.1489 65.7648 61.0776 66.8143 62.2837 67.8328Z" fill="white"/>
<path d="M90.9803 100.414C86.0453 97.7448 83.1077 94.4095 82.1674 90.4083C81.2271 86.4071 82.1373 81.8546 84.898 76.7507C86.6742 73.467 88.7854 71.0436 91.2317 69.4805C93.6779 67.9174 96.3177 67.1624 99.151 67.2155C101.994 67.2497 104.88 68.0586 107.807 69.6419C110.866 71.2963 113.013 73.3795 114.249 75.8916C115.496 78.385 115.927 81.1527 115.543 84.1949C115.169 87.2183 114.083 90.3907 112.287 93.7119C110.744 96.5641 108.864 98.7611 106.648 100.303C104.442 101.826 102.001 102.616 99.3267 102.673C96.6521 102.73 93.87 101.977 90.9803 100.414ZM94.0002 94.2257C95.3512 94.9564 96.656 95.3469 97.9143 95.3969C99.1829 95.4282 100.365 95.1942 101.459 94.6949C102.564 94.1768 103.561 93.4549 104.45 92.5289C105.358 91.6131 106.131 90.5642 106.771 89.382C107.887 87.318 108.586 85.3311 108.867 83.4215C109.177 81.5033 108.994 79.7792 108.317 78.2493C107.67 76.7107 106.474 75.4695 104.729 74.5255C102.946 73.5613 101.225 73.2005 99.5662 73.443C97.9359 73.6768 96.429 74.3776 95.0455 75.5454C93.6909 76.7045 92.5163 78.2035 91.5216 80.0424C89.9484 82.9508 89.3256 85.6942 89.653 88.2725C89.9804 90.8508 91.4295 92.8352 94.0002 94.2257Z" fill="white"/>
<path d="M141.564 113.862C140.932 114.646 140.112 115.425 139.103 116.2C138.094 116.975 136.89 117.519 135.49 117.834C134.084 118.168 132.477 118.047 130.669 117.469C128.332 116.722 126.614 115.613 125.517 114.143C124.439 112.678 123.848 111.023 123.745 109.175C123.667 107.314 123.941 105.408 124.564 103.458C124.902 102.401 125.292 101.215 125.734 99.901C126.197 98.5931 126.673 97.2446 127.161 95.8554C127.65 94.4662 128.119 93.138 128.569 91.8708C129.039 90.6101 129.45 89.4985 129.803 88.5361C130.161 87.5533 130.429 86.8214 130.605 86.3402C128.697 85.9321 126.987 85.6093 125.472 85.3718C123.978 85.1407 122.992 85.0046 122.512 84.9633C122.623 84.1254 122.778 83.2565 122.976 82.3567C123.18 81.4366 123.369 80.6348 123.543 79.9512C123.743 79.2538 123.876 78.8035 123.941 78.6003C125.131 78.8014 126.483 79.0544 127.998 79.3594C129.513 79.6644 131.026 80.0132 132.535 80.406C132.762 79.6948 133.044 78.7771 133.381 77.6529C133.738 76.5353 134.063 75.4855 134.354 74.5036C134.62 73.6704 134.85 72.8479 135.042 72.0359C135.241 71.2036 135.394 70.5135 135.502 69.9657L142.516 71.6696C142.439 71.9809 142.252 72.6714 141.955 73.7411C141.658 74.8108 141.269 76.0975 140.788 77.6012C140.587 78.2312 140.35 78.9729 140.077 79.8264C139.811 80.6595 139.564 81.4317 139.337 82.143C140 82.3101 140.786 82.5162 141.693 82.7613C142.6 83.0064 143.317 83.2134 143.846 83.3822C144.794 83.6403 145.674 83.8992 146.487 84.159C147.3 84.4187 147.987 84.6497 148.55 84.8518C149.112 85.054 149.465 85.1778 149.607 85.2232C149.488 85.9466 149.263 86.8939 148.934 88.0652C148.611 89.2162 148.323 90.1879 148.069 90.9804C147.873 90.8952 147.182 90.6744 145.997 90.3181C144.838 89.9479 143.687 89.5912 142.543 89.2478C141.743 89.0149 140.847 88.7731 139.852 88.5223C138.857 88.2716 138.038 88.0659 137.395 87.9052C137.212 88.4067 136.941 89.1152 136.581 90.0304C136.242 90.9522 135.864 91.9959 135.446 93.1615C135.056 94.3133 134.646 95.4924 134.215 96.6987C133.792 97.8846 133.397 99.0128 133.033 100.083C132.668 101.154 132.373 102.045 132.145 102.756C131.73 104.057 131.411 105.299 131.19 106.482C130.975 107.645 131.018 108.667 131.319 109.547C131.647 110.413 132.39 111.031 133.548 111.401C134.341 111.655 135.065 111.595 135.722 111.222C136.399 110.856 136.99 110.373 137.495 109.773C138.021 109.18 138.443 108.665 138.761 108.23C138.886 108.538 139.084 108.971 139.354 109.528C139.624 110.084 139.908 110.668 140.206 111.278C140.53 111.874 140.817 112.414 141.066 112.897C141.315 113.379 141.481 113.701 141.564 113.862Z" fill="white"/>
<path d="M190.31 128.37C187.11 128.408 184.32 127.896 181.94 126.836C179.559 125.798 177.706 124.262 176.381 122.23C175.076 120.176 174.407 117.698 174.373 114.797C174.349 112.792 174.658 110.975 175.301 109.346C175.964 107.695 176.821 106.213 177.872 104.899C178.945 103.564 180.104 102.387 181.351 101.37C182.597 100.331 183.803 99.4312 184.967 98.6708C184.471 98.2073 183.823 97.5002 183.022 96.5496C182.243 95.5774 181.536 94.4443 180.902 93.1504C180.268 91.8564 179.942 90.4629 179.924 88.9696C179.899 86.8151 180.38 85.0706 181.367 83.7362C182.375 82.4016 183.697 81.4259 185.332 80.8092C186.989 80.1709 188.767 79.8406 190.665 79.8182C192.67 79.7945 194.403 80.1688 195.863 80.9409C197.344 81.6915 198.486 82.7127 199.291 84.0046C200.095 85.2752 200.507 86.7105 200.526 88.3104C200.545 89.9529 200.296 91.3853 199.777 92.6075C199.258 93.8297 198.503 94.98 197.513 96.0585C196.545 97.1367 195.395 98.2703 194.065 99.4594C194.713 100.134 195.502 100.989 196.432 102.024C197.361 103.037 198.355 104.134 199.415 105.317C200.495 106.477 201.554 107.638 202.592 108.799C203.651 109.939 204.602 110.984 205.445 111.934C205.719 111.589 206.054 111.105 206.452 110.482C206.871 109.858 207.28 109.203 207.677 108.515C208.095 107.806 208.461 107.173 208.775 106.614C209.088 106.035 209.296 105.627 209.4 105.391C209.851 105.599 210.377 105.923 210.98 106.364C211.604 106.784 212.206 107.235 212.788 107.719C213.391 108.203 213.908 108.655 214.34 109.077C214.174 109.484 213.819 110.128 213.275 111.009C212.752 111.869 212.154 112.783 211.483 113.751C210.833 114.719 210.225 115.579 209.657 116.333C210.219 116.881 210.834 117.503 211.504 118.199C212.173 118.895 212.843 119.591 213.512 120.287C214.182 120.983 214.776 121.627 215.295 122.218C214.96 122.713 214.518 123.273 213.971 123.898C213.445 124.502 212.886 125.074 212.295 125.614C211.726 126.154 211.197 126.566 210.71 126.849C210.299 126.363 209.779 125.761 209.152 125.043C208.546 124.304 207.951 123.575 207.366 122.856C206.782 122.138 206.295 121.546 205.905 121.081C205.527 121.576 204.905 122.224 204.04 123.023C203.196 123.823 202.117 124.625 200.804 125.43C199.512 126.234 197.984 126.914 196.22 127.468C194.477 128.043 192.507 128.344 190.31 128.37ZM190.785 122.508C192.214 122.491 193.524 122.262 194.713 121.821C195.924 121.359 197.005 120.802 197.958 120.151C198.91 119.5 199.713 118.85 200.367 118.202C201.021 117.555 201.494 117.016 201.788 116.585C200.924 115.7 199.909 114.634 198.742 113.389C197.596 112.123 196.407 110.814 195.175 109.463C193.965 108.112 192.819 106.835 191.738 105.631C190.657 104.407 189.759 103.372 189.045 102.527C188.135 103.178 187.216 103.903 186.287 104.704C185.379 105.504 184.546 106.399 183.79 107.389C183.034 108.38 182.428 109.475 181.973 110.675C181.539 111.875 181.331 113.211 181.348 114.683C181.367 116.325 181.8 117.739 182.646 118.924C183.492 120.087 184.623 120.98 186.038 121.604C187.453 122.227 189.036 122.528 190.785 122.508ZM189.926 95.828C191.132 94.9604 192.175 93.8813 193.056 92.5909C193.958 91.2788 194.4 89.8655 194.382 88.3509C194.37 87.327 194.04 86.4668 193.392 85.7704C192.765 85.0738 191.768 84.7335 190.403 84.7496C189.251 84.7632 188.264 85.1269 187.44 85.8407C186.638 86.5542 186.244 87.5296 186.258 88.7668C186.274 90.0894 186.673 91.3861 187.456 92.657C188.261 93.9062 189.084 94.9632 189.926 95.828Z" fill="white"/>
<path d="M278.022 99.5213C277.512 101.248 276.763 102.971 275.774 104.69C274.785 106.409 273.502 107.973 271.925 109.383C270.368 110.786 268.486 111.886 266.279 112.685C263.651 113.635 261.129 113.969 258.712 113.686C256.309 113.376 254.071 112.552 251.999 111.214C249.947 109.869 248.104 108.097 246.469 105.898C244.847 103.672 243.514 101.114 242.469 98.2256C241.112 94.4741 240.525 90.8753 240.707 87.429C240.89 83.9827 241.883 80.9579 243.686 78.3546C245.502 75.7239 248.166 73.7736 251.676 72.5037C254.585 71.4515 257.516 71.1174 260.468 71.5015C263.412 71.8656 265.961 72.9853 268.114 74.8608C267.893 75.44 267.546 76.1439 267.075 76.9724C266.596 77.7808 266.1 78.5728 265.586 79.3484C265.065 80.1039 264.612 80.7329 264.227 81.2353C264.005 80.9979 263.612 80.6637 263.047 80.2326C262.496 79.7742 261.79 79.3602 260.931 78.9906C260.064 78.6009 259.039 78.3704 257.856 78.2992C256.694 78.2207 255.4 78.439 253.976 78.9542C252.852 79.3606 251.877 80.0197 251.05 80.9314C250.223 81.8432 249.614 82.9822 249.223 84.3485C248.825 85.6948 248.693 87.2739 248.827 89.0858C248.953 90.8776 249.412 92.8669 250.203 95.0536C250.885 96.9393 251.721 98.6221 252.71 100.102C253.719 101.575 254.819 102.798 256.012 103.774C257.196 104.729 258.438 105.369 259.735 105.694C261.025 105.999 262.281 105.93 263.505 105.487C264.99 104.95 266.219 104.176 267.192 103.167C268.178 102.129 268.976 101.012 269.587 99.816C270.21 98.5923 270.711 97.4357 271.088 96.3464C271.76 96.5116 272.536 96.7754 273.416 97.1377C274.309 97.4728 275.172 97.8524 276.006 98.2767C276.86 98.6937 277.532 99.1086 278.022 99.5213Z" fill="white"/>
<path d="M297.891 98.5628C297.566 98.8088 297.117 99.1173 296.544 99.4883C295.981 99.8776 295.381 100.265 294.741 100.651C294.047 101.07 293.364 101.445 292.692 101.776C292.049 102.114 291.548 102.317 291.19 102.384C290.597 101.072 289.782 99.433 288.746 97.4673C287.727 95.4907 286.549 93.3114 285.211 90.9295C283.891 88.5366 282.47 86.0799 280.949 83.5594C279.494 81.1485 277.991 78.7414 276.441 76.3381C274.89 73.9348 273.371 71.6247 271.884 69.4079C270.396 67.191 269.021 65.1805 267.757 63.3765C267.87 63.2335 268.155 62.962 268.611 62.562C269.068 62.162 269.597 61.7179 270.199 61.2297C270.791 60.7233 271.357 60.2571 271.897 59.8313C272.456 59.3945 272.881 59.0878 273.173 58.9115C274.292 60.1049 275.559 61.6455 276.972 63.5333C278.375 65.4028 279.847 67.4917 281.39 69.7999C282.94 72.0788 284.483 74.4492 286.019 76.9111C286.188 75.7874 286.576 74.5937 287.184 73.3299C287.791 72.066 288.586 70.8639 289.567 69.7235C290.548 68.583 291.66 67.638 292.902 66.8884C294.984 65.6316 296.879 65.0979 298.588 65.2873C300.287 65.4585 301.869 66.2226 303.336 67.5798C304.792 68.9187 306.204 70.7205 307.571 72.9852C308.419 74.3916 309.291 75.9589 310.184 77.687C311.078 79.4152 311.929 81.1563 312.739 82.9103C313.567 84.6533 314.294 86.2704 314.92 87.7615C314.489 88.1211 314.01 88.4846 313.485 88.8519C312.977 89.2081 312.449 89.5516 311.901 89.8823C311.335 90.224 310.752 90.5384 310.153 90.8253C309.554 91.1123 309.013 91.3515 308.531 91.543C308.14 90.6075 307.682 89.5385 307.156 88.3362C306.629 87.1339 306.077 85.9097 305.499 84.6636C304.911 83.3993 304.317 82.188 303.717 81.0298C303.136 79.8606 302.581 78.8376 302.052 77.9609C301.247 76.6276 300.434 75.5487 299.612 74.724C298.79 73.8993 297.927 73.3985 297.023 73.2216C296.137 73.0337 295.156 73.2649 294.078 73.9154C293.183 74.4555 292.444 75.1508 291.861 76.0011C291.296 76.8405 290.845 77.7234 290.507 78.6499C290.187 79.5654 289.957 80.402 289.817 81.1597C289.676 81.9175 289.595 82.4646 289.574 82.8013C290.765 84.7738 291.921 86.7922 293.042 88.8564C294.163 90.9205 295.156 92.8131 296.02 94.534C296.885 96.255 297.508 97.5979 297.891 98.5628Z" fill="white"/>
<path d="M332.632 73.4632C332.384 73.6991 331.98 74.0805 331.419 74.6073C330.889 75.1366 330.305 75.669 329.668 76.2043C329.162 76.6297 328.642 77.0389 328.108 77.4317C327.591 77.8108 327.076 78.1598 326.564 78.4788C326.272 77.9993 325.62 77.0569 324.606 75.6517C323.592 74.2464 322.373 72.5962 320.947 70.701C319.538 68.7921 318.064 66.8398 316.526 64.844C314.991 62.8181 313.548 60.9517 312.197 59.2446C310.832 57.5213 309.725 56.1533 308.874 55.1407C309.089 54.9323 309.426 54.6208 309.886 54.2065C310.348 53.7621 310.85 53.2983 311.392 52.8154C311.92 52.316 312.43 51.8455 312.923 51.4037C313.415 50.9619 313.8 50.6243 314.078 50.391C314.541 50.8097 315.201 51.4953 316.057 52.4477C316.93 53.3865 317.874 54.4601 318.889 55.6687C320.166 57.1875 321.529 58.8426 322.979 60.6339C324.414 62.4089 325.8 64.1567 327.134 65.8775C328.469 67.5983 329.629 69.1449 330.616 70.5175C331.605 71.86 332.277 72.8419 332.632 73.4632ZM308.651 48.8074C307.409 49.8505 306.096 50.3271 304.711 50.2373C303.326 50.1474 302.153 49.5309 301.192 48.3876C300.506 47.571 300.11 46.7191 300.005 45.8318C299.887 44.9282 300.006 44.0755 300.364 43.2737C300.723 42.4418 301.246 41.7376 301.932 41.1612C303.059 40.2141 304.296 39.8293 305.644 40.0067C306.991 40.1842 308.152 40.8526 309.126 42.0122C309.991 43.0411 310.397 44.2044 310.345 45.5021C310.293 46.7997 309.729 47.9015 308.651 48.8074Z" fill="white"/>
<path d="M354.532 49.074C354.681 49.9142 354.532 51.0739 354.084 52.5532C353.636 54.0324 352.786 55.4423 351.533 56.7829C349.815 58.6222 348.066 59.5721 346.287 59.6324C344.507 59.6626 342.652 59.0539 340.723 57.8061C338.794 56.5584 336.754 54.9296 334.603 52.9196C333.138 51.5505 331.594 50.0785 329.971 48.5034C328.332 46.9138 326.677 45.2945 325.006 43.6456C323.35 41.9812 321.732 40.3531 320.154 38.7614C318.574 37.1396 317.089 35.6202 315.697 34.2034C314.291 32.7719 313.055 31.5007 311.991 30.3897C312.73 29.4741 313.427 28.6656 314.082 27.9641C314.534 27.4809 314.986 27.0278 315.44 26.6049C315.892 26.1519 316.397 25.6895 316.955 25.2177C318.082 26.4172 319.39 27.7992 320.876 29.3638C322.378 30.9128 323.957 32.5346 325.615 34.2292C327.257 35.9093 328.883 37.5748 330.494 39.2257C332.119 40.8611 333.627 42.3721 335.017 43.7589C336.407 45.1456 337.586 46.2905 338.552 47.1935C339.674 48.2422 340.801 49.1926 341.932 50.0448C343.061 50.8668 344.128 51.3966 345.133 51.6342C346.137 51.8718 346.989 51.6166 347.688 50.8683C348.256 50.2604 348.56 49.6539 348.6 49.0488C348.624 48.4292 348.519 47.7912 348.286 47.135C348.513 47.1726 348.932 47.2867 349.542 47.4773C350.152 47.6377 350.815 47.8341 351.532 48.0664C352.234 48.2841 352.867 48.4965 353.433 48.7037C353.997 48.8808 354.364 49.0042 354.532 49.074Z" fill="white"/>
<path d="M370.187 28.2543C370.438 29.0698 370.431 30.2391 370.168 31.7621C369.905 33.2851 369.233 34.7885 368.155 36.2724C366.674 38.3084 365.055 39.4652 363.296 39.743C361.534 39.991 359.618 39.6139 357.551 38.6118C355.484 37.6098 353.26 36.243 350.879 34.5117C349.257 33.3323 347.544 32.0604 345.74 30.696C343.919 29.3191 342.078 27.9147 340.218 26.4828C338.37 25.0337 336.565 23.616 334.804 22.2296C333.038 20.8135 331.377 19.4875 329.823 18.2517C328.251 17.0033 326.869 15.8929 325.677 14.9206C326.298 13.9214 326.891 13.0336 327.456 12.2572C327.845 11.7223 328.238 11.2172 328.637 10.742C329.03 10.2369 329.475 9.71613 329.97 9.17968C331.236 10.232 332.703 11.4435 334.37 12.8142C336.05 14.1677 337.816 15.5838 339.669 17.0627C341.504 18.5291 343.322 19.9829 345.123 21.4242C346.936 22.8482 348.618 24.1632 350.167 25.3692C351.717 26.5752 353.027 27.5671 354.097 28.345C355.339 29.2483 356.573 30.0536 357.8 30.7609C359.022 31.4384 360.146 31.8335 361.171 31.9464C362.197 32.0592 363.011 31.7015 363.613 30.8734C364.103 30.2004 364.33 29.5613 364.295 28.9559C364.244 28.3379 364.062 27.7176 363.75 27.0949C363.98 27.1043 364.41 27.1662 365.039 27.2807C365.663 27.3653 366.345 27.479 367.086 27.6217C367.809 27.7518 368.464 27.885 369.05 28.0214C369.632 28.128 370.011 28.2057 370.187 28.2543Z" fill="white"/>
</svg>
